<?xml version="1.0" encoding="utf-8"?>
<!-- Generator: Adobe Illustrator 26.0.1, SVG Export Plug-In . SVG Version: 6.00 Build 0)  -->
<svg version="1.1" id="Camada_1" xmlns="http://www.w3.org/2000/svg" xmlns:xlink="http://www.w3.org/1999/xlink" x="0px" y="0px"
	 viewBox="0 0 595.28 235.02" style="enable-background:new 0 0 595.28 235.02;" xml:space="preserve">
<style type="text/css">
	.st0{fill:#CECFD0;}
</style>
<g>
	<g>
		<polygon class="st0" points="73.34,148.55 73.34,164.41 73.34,216.98 73.34,234.44 73.34,234.73 177.8,234.73 177.8,216.98 
			91.09,216.98 91.09,164.41 177.8,164.41 177.8,146.66 73.34,146.66 		"/>
		<path class="st0" d="M187.44,148.55v15.86v52.57v17.47v0.28h86.71h17.75v-17.75v-52.57v-15.57v-2.18H187.44V148.55z
			 M205.19,164.41h68.95v52.57h-68.95V164.41z"/>
		<polygon class="st0" points="304.59,164.37 391.3,164.37 391.3,216.95 304.59,216.95 304.59,234.7 391.3,234.7 409.05,234.7 
			409.05,216.95 409.05,164.37 409.05,148.8 409.05,146.62 304.59,146.62 		"/>
		<polygon class="st0" points="521.66,163.14 521.66,145.39 434.95,145.39 417.2,145.39 417.2,163.14 417.2,180.56 417.2,198.31 
			417.2,215.72 417.2,231.29 417.2,233.47 521.66,233.47 521.66,215.72 434.95,215.72 434.95,198.31 521.66,198.31 521.66,180.56 
			434.95,180.56 434.95,163.14 		"/>
	</g>
	<g>
		<polygon class="st0" points="20.3,19.63 107.06,19.63 107.06,1.88 20.3,1.88 20.3,1.82 2.55,1.82 2.55,54.47 2.64,54.47 
			2.64,54.55 89.35,54.55 89.35,71.88 2.64,71.88 2.64,89.63 107.1,89.63 107.1,89.46 107.1,71.88 107.1,54.55 107.1,38.15 
			107.1,36.8 20.3,36.8 		"/>
		<rect x="346.09" y="1.88" class="st0" width="17.75" height="87.71"/>
		<polygon class="st0" points="117.46,3.36 117.46,19.21 117.46,71.78 117.46,89.25 117.46,89.53 221.92,89.53 221.92,71.78 
			135.21,71.78 135.21,19.21 221.92,19.21 221.92,1.46 117.46,1.46 		"/>
		<polygon class="st0" points="549.48,1.59 531.73,1.59 488.75,1.59 488.75,19.34 531.73,19.34 531.73,89.53 549.48,89.53 
			549.48,19.34 592.45,19.34 592.45,1.59 		"/>
		<path class="st0" d="M459.71,2.09h-76.23v0h-10.11V89.8h17.75V54.6h73.95v-0.01h12.39V2.09h-13.51H459.71z M459.71,36.85h-68.59
			V19.84h68.59V36.85z"/>
		<path class="st0" d="M335.72,54.52v-7.38V36.77V5.85h-0.24v-4.2H231.02v2.5H231v85.38h17.75V54.52h54.5l14.12,35.16l19.15,0.05
			l-14.14-35.2H335.72z M317.96,36.77h-69.22V19.39h69.22V36.77z"/>
	</g>
</g>
</svg>
