<?xml version="1.0" encoding="utf-8"?>
<!-- Generator: Adobe Illustrator 26.0.1, SVG Export Plug-In . SVG Version: 6.00 Build 0)  -->
<svg version="1.1" id="Camada_1" xmlns="http://www.w3.org/2000/svg" xmlns:xlink="http://www.w3.org/1999/xlink" x="0px" y="0px"
	 viewBox="0 0 390 390" style="enable-background:new 0 0 390 390;" xml:space="preserve">
<style type="text/css">
	.st0{fill:#CECFD0;}
</style>
<g id="logo">
	<g>
		<path class="st0" d="M20.6,111.7c-6.1,0-11.1-1.9-14.7-5.6c-3.6-3.7-5.5-8.7-5.5-14.9V47.4c0-6.2,1.8-11.2,5.5-14.9
			c3.6-3.7,8.6-5.6,14.7-5.6h15c6.1,0,11.1,1.9,14.7,5.6c3.6,3.7,5.5,8.7,5.5,14.9v43.8c0,6.2-1.8,11.2-5.5,14.9
			c-3.6,3.7-8.6,5.6-14.7,5.6L20.6,111.7L20.6,111.7z M21,38.7c-2.9,0-4.9,0.7-6.3,2.2c-1.4,1.5-2.1,3.8-2.1,6.8V91
			c0,3,0.7,5.3,2.1,6.8c1.4,1.5,3.4,2.2,6.3,2.2H35c2.9,0,5-0.7,6.4-2.2c1.4-1.5,2.1-3.8,2.1-6.8V47.6c0-3.1-0.7-5.4-2.1-6.8
			c-1.4-1.5-3.5-2.2-6.4-2.2L21,38.7L21,38.7z"/>
		<path class="st0" d="M124.1,28.6v78.6c0,2.8,1.8,4.8,4.3,4.8h37.9c0.6,0,1-0.4,1-1v-10.4c0-0.6-0.4-1-1-1h-28.9c-0.6,0-1-0.4-1-1
			V28.6c0-0.3,0-0.6-0.1-0.8c-0.1-0.5-0.5-0.8-1-0.8h-10.2c-0.5,0-0.9,0.4-1,0.8C124.2,28.1,124.1,28.3,124.1,28.6z"/>
		<path class="st0" d="M69.1,28.6v78.6c0,2.8,1.8,4.8,4.3,4.8h37.9c0.6,0,1-0.4,1-1v-10.4c0-0.6-0.4-1-1-1H82.4c-0.6,0-1-0.4-1-1
			v-70c0-0.3,0-0.6-0.1-0.8c-0.1-0.5-0.5-0.8-1-0.8H70.1c-0.5,0-0.9,0.4-1,0.8C69.1,28.1,69.1,28.3,69.1,28.6z"/>
		<path class="st0" d="M350,27.7l-24.2,81.9c-0.1,0.5-0.2,0.9-0.3,1.3c0,0.6,0.4,1.1,1,1.1H337c0.4,0,0.8-0.3,1-0.7l5.5-17.8
			c0.1-0.4,0.5-0.7,1-0.7h26.1c0.4,0,0.8,0.3,1,0.7l5.5,17.8c0.1,0.4,0.5,0.7,1,0.7h10.6c0.6,0,1-0.5,1-1.1c0-0.3-0.1-0.7-0.2-1.1
			l0-0.1l-24.2-82.1c-0.1-0.4-0.5-0.7-1-0.7H351C350.5,27,350.1,27.3,350,27.7z M366.4,80.1h-17.6c-0.7,0-1.1-0.6-1-1.3l8.8-30.8
			c0.3-1,1.6-1,1.9,0l8.8,30.8C367.5,79.4,367,80.1,366.4,80.1z"/>
		<path class="st0" d="M199.9,27.7l-24.2,81.9c-0.1,0.5-0.2,0.9-0.3,1.3c-0.1,0.6,0.4,1.1,1,1.1H187c0.4,0,0.8-0.3,1-0.7l5.5-17.8
			c0.1-0.4,0.5-0.7,1-0.7h26.1c0.4,0,0.8,0.3,1,0.7l5.5,17.8c0.1,0.4,0.5,0.7,1,0.7h10.6c0.6,0,1-0.5,1-1.1c0-0.3-0.1-0.7-0.2-1.1
			l0-0.1l-24.2-82.1c-0.1-0.4-0.5-0.7-1-0.7h-13.3C200.5,27,200.1,27.3,199.9,27.7z M216.3,80.1h-17.6c-0.7,0-1.1-0.6-1-1.3
			l8.8-30.8c0.3-1,1.6-1,1.9,0l8.8,30.8C217.5,79.4,217,80.1,216.3,80.1z"/>
		<path class="st0" d="M302.4,27.6l-18.9,48.1c-0.3,0.8-1.5,0.8-1.9,0l-18.9-48.1c-0.1-0.4-0.5-0.6-0.9-0.6h-13.4c-0.6,0-1,0.5-1,1
			v83c0,0.6,0.4,1,1,1h10.2c0.5,0,1-0.4,1-1l-0.1-53.7c0-1.1,1.5-1.4,1.9-0.4L276,93.5c0.8,2.2,2.5,3.6,4.6,3.6h4
			c1.1,0,3.1-0.4,4.5-3.2l0.1-0.1l14.3-36.4c0.4-1,1.9-0.7,1.9,0.4V93l0,0V112h0.2h12h0.1v-0.6c0-0.2,0-0.5,0-0.8V28
			c0-0.5-0.5-1-1-1h-13.4C302.9,27,302.6,27.2,302.4,27.6z"/>
	</g>
	<g>
		<path class="st0" d="M143.2,363c-7.7,0-14-2-18.6-5.8c-4.6-3.8-7-9-7-15.4v-43.2c0-6.4,2.3-11.6,7-15.4c4.6-3.9,10.9-5.8,18.6-5.8
			h18.1c7.7,0,14,2,18.6,5.8c4.6,3.8,7,9,7,15.4v43.2c0,6.4-2.3,11.6-7,15.4c-4.6,3.9-10.9,5.8-18.6,5.8H143.2z M143.8,291
			c-3.1,0-5.2,0.6-6.6,1.8c-1.5,1.3-2.2,3.3-2.2,6v42.8c0,2.7,0.7,4.7,2.2,6c1.4,1.2,3.5,1.8,6.6,1.8h16.8c3.1,0,5.3-0.6,6.8-1.8
			c1.5-1.2,2.2-3.3,2.2-6v-42.8c0-2.7-0.7-4.8-2.2-6c-1.4-1.2-3.6-1.8-6.8-1.8L143.8,291L143.8,291z"/>
		<path class="st0" d="M217.9,363c-3.8,0-6.5-2.3-6.5-5.5v-74.6c0-3.2,2.7-5.5,6.5-5.5h36.4c7.7,0,14,2,18.7,5.8c4.6,3.8,7,9,7,15.4
			v43.2c0,6.4-2.3,11.6-7,15.4c-4.6,3.9-10.9,5.8-18.7,5.8H217.9z M253.5,349.4c3.1,0,5.3-0.6,6.8-1.8c1.5-1.2,2.2-3.3,2.2-6v-42.8
			c0-2.7-0.7-4.8-2.2-6c-1.4-1.2-3.6-1.8-6.8-1.8h-24.7v58.4L253.5,349.4L253.5,349.4z"/>
		<path class="st0" d="M50.1,363c-7.7,0-14-2-18.6-5.8c-4.6-3.8-7-9-7-15.4v-43.2c0-6.4,2.3-11.6,7-15.4c4.6-3.9,10.9-5.8,18.6-5.8
			h18.5c7.7,0,14,2,18.6,5.8c4.6,3.8,7,9,7,15.4v1.4c0,0.5-0.5,1-1.2,1H78.1c-0.7,0-1.2-0.5-1.2-1v-1.1c0-2.7-0.7-4.8-2.2-6
			c-1.4-1.2-3.6-1.8-6.8-1.8H50.7c-3.1,0-5.2,0.6-6.6,1.8c-1.5,1.3-2.2,3.3-2.2,6v42.8c0,2.7,0.7,4.7,2.2,6c1.4,1.2,3.5,1.8,6.6,1.8
			h17.2c3.1,0,5.3-0.6,6.8-1.8c1.5-1.2,2.2-3.3,2.2-6v-2.2c0-0.5,0.5-1,1.2-1H93c0.7,0,1.2,0.5,1.2,1v2.4c0,6.4-2.3,11.6-7,15.4
			c-4.6,3.9-10.9,5.8-18.6,5.8L50.1,363L50.1,363z"/>
		<path class="st0" d="M312,363c-3.8,0-6.6-2.3-6.6-5.5v-74.6c0-3.2,2.8-5.5,6.6-5.5h52c0.7,0,1.2,0.5,1.2,1V290c0,0.5-0.6,1-1.2,1
			h-39.7c-0.7,0-1.2,0.5-1.2,1v19.5c0,0.5,0.6,1,1.2,1h35.3c0.7,0,1.2,0.5,1.2,1v11.8c0,0.5-0.6,1-1.2,1h-35.3c-0.7,0-1.2,0.5-1.2,1
			v21.1c0,0.5,0.6,1,1.2,1H364c0.7,0,1.2,0.5,1.2,1V362c0,0.5-0.6,1-1.2,1h-4.8c-0.4,0-0.6,0.1-0.9,0.1H312z"/>
	</g>
	<g>
		<path class="st0" d="M65.4,197.6c-3.5-3.1-7.9-5.2-12.9-6.4c-4.5-1.1-9.1-2-13.5-2.8c-7.9-1.4-12.3-3.8-13.1-7
			c-0.1-0.4-0.2-0.8-0.2-1.2v-6c0-6.5,2.6-9.2,9.2-9.2h13.4c7.3,0.5,8.9,6.8,9.2,9.1c0.1,0.5,0.5,0.9,1.1,0.9h11.2
			c0.6,0,1.1-0.5,1.1-1c-0.2-3-1-11.4-5.9-15.1c-4.3-3.3-9.2-5.5-15.8-5.5H34c-6.5,0-11.9,1.9-15.8,5.5s-5.9,8.6-5.9,14.7v6.6
			c0,0.4,0,0.8,0.1,1.2c0.3,4.7,2.2,8.6,5.8,11.5c3.5,2.9,7.9,4.9,12.9,6c4.5,1,9,1.9,13.4,2.8c4,0.8,7.4,2.1,10.1,3.9
			c1.1,0.7,1.9,1.5,2.4,2.4c0.5,1,0.8,2.1,0.8,3.3v3.1v1.9c0,6.4-2.7,9.1-9.3,9.1H34.9c-6.6,0-9.3-2.6-9.3-8.9v-1.1
			c0-0.6-0.5-1-1.1-1H13.4c-0.6,0-1.1,0.4-1.1,1v1.4c0,6.1,2,11.1,5.9,14.7S27.5,237,34,237h15.4c6.5,0,11.9-1.9,15.8-5.5
			c3.9-3.6,5.9-8.6,5.9-14.7v-2.4v-3.5c0-1-0.1-2-0.2-2.9C70.3,203.8,68.5,200.3,65.4,197.6z"/>
		<path class="st0" d="M137.2,158.9c-3.9-3.6-9.2-5.5-15.7-5.5h-16.4c-6.6,0-11.8,1.9-15.7,5.5c-3.9,3.6-5.8,8.6-5.8,14.7v1.4v6.4
			V208v6.4v2.4c0,6.1,2,11.1,5.8,14.7c3.9,3.6,9.2,5.5,15.7,5.5h16.4c6.6,0,11.9-1.9,15.7-5.5c3.9-3.6,5.8-8.6,5.8-14.7v-1.4
			c0-0.6-0.5-1-1.1-1h-11.1c-0.6,0-1.1,0.4-1.1,1v1.2c0,3-0.8,5.3-2.3,6.7c-1.5,1.4-3.7,2.1-6.8,2.1h-15.2c-3,0-5.2-0.7-6.7-2.1
			c-1.5-1.5-2.2-3.7-2.2-6.7v-2.2V208v-26.6V175v-1.1c0-3,0.7-5.2,2.2-6.7c1.4-1.4,3.6-2.1,6.7-2.1h15.2c3.1,0,5.3,0.7,6.8,2.1
			c2.2,1.6,2.4,5.1,2.3,6.8c0,0.6,0.5,1,1.1,1h11c0.6,0,1.1-0.5,1.1-1C143,171.2,142.3,163.6,137.2,158.9z"/>
		<path class="st0" d="M320.7,154.4v10.2c0,0.6,0.5,1,1.1,1h19.6c0.6,0,1.1,0.4,1.1,1v69.6c0,0.6,0.5,1,1.1,1h11.1
			c0.6,0,1.1-0.4,1.1-1v-69.6c0-0.6,0.5-1,1.1-1h19.6c0.6,0,1.1-0.4,1.1-1v-10.2c0-0.6-0.5-1-1.1-1h-54.6
			C321.2,153.4,320.7,153.8,320.7,154.4z"/>
		<path class="st0" d="M302.3,159.1c-3.9-3.8-9.2-5.7-15.8-5.7h-33.5c-0.6,0-1.1,0.4-1.1,1v81.7c0,0.6,0.5,1,1.1,1H264
			c0.6,0,1.1-0.4,1.1-1v-24.7c0-0.6,0.5-1,1.1-1h20.3c6.5,0,11.9-1.9,15.8-5.7c3.9-3.8,5.9-9,5.9-15.4v-14.8
			C308.2,168.1,306.2,162.9,302.3,159.1z M294.8,189c0,3.1-0.7,5.4-2.2,6.9c-1.4,1.5-3.6,2.2-6.7,2.2h-19.8c-0.6,0-1.1-0.4-1.1-1
			v-27v-3.6c0-0.6,0.5-1,1.1-1h19.8c3.1,0,5.2,0.7,6.7,2.2c1.5,1.5,2.2,3.9,2.2,7.1V189z"/>
		<path class="st0" d="M225.2,154.4v81.7c0,0.6,0.5,1,1.1,1h11.1c0.6,0,1.1-0.4,1.1-1v-81.7c0-0.6-0.5-1-1.1-1h-11.1
			C225.6,153.4,225.2,153.8,225.2,154.4z"/>
		<path class="st0" d="M213.5,235.7l-14-28.8c-0.2-0.5,0-1.1,0.5-1.3c2.9-1.3,5.3-3.1,7.2-5.5c2.9-3.6,4.4-8.2,4.4-13.6v-12
			c0-6.4-2-11.6-5.9-15.4c-3.9-3.8-9.2-5.7-15.8-5.7h-33.3c-0.6,0-1.1,0.4-1.1,1v81.7c0,0.6,0.5,1,1.1,1h11.1c0.6,0,1.1-0.4,1.1-1
			v-27.4c0-0.6,0.5-1,1.1-1h14.6c0.4,0,0.8,0.2,1,0.6l13.7,28.3c0.2,0.4,0.6,0.6,1,0.6l12.3,0C213.3,237.1,213.8,236.3,213.5,235.7z
			 M198.5,186.6c0,3.1-0.8,5.3-2.3,6.9c-1.5,1.5-3.8,2.2-6.9,2.2h-19.4c-0.6,0-1.1-0.4-1.1-1v-28.2c0-0.6,0.5-1,1.1-1h19.4
			c3.1,0,5.3,0.8,6.8,2.3c1.6,1.6,2.3,3.9,2.3,7V186.6z"/>
	</g>
</g>
</svg>
