<?xml version="1.0" encoding="utf-8"?>
<!-- Generator: Adobe Illustrator 26.0.1, SVG Export Plug-In . SVG Version: 6.00 Build 0)  -->
<svg version="1.1" id="Camada_1" xmlns="http://www.w3.org/2000/svg" xmlns:xlink="http://www.w3.org/1999/xlink" x="0px" y="0px"
	 viewBox="0 0 128 128" style="enable-background:new 0 0 128 128;" xml:space="preserve">
<style type="text/css">
	.st0{fill:#010A1B;}
	.st1{opacity:0.1;fill:#333A48;fill-opacity:0.5;}
	.st2{fill:#FFFFFF;}
</style>
<g id="LOGO_00000183947569618393874980000017270378067596041346_">
	<g>
		<polygon class="st0" points="64.2,14.3 64.2,14.3 38.9,1.6 36,0.2 33.1,1.6 7.8,14.2 5.2,15.6 5.2,18.4 5.2,53.6 5.2,56.5 
			7.8,57.8 33.1,70.4 36,71.8 38.9,70.4 64.2,57.8 64.2,57.7 66.8,56.4 66.8,53.8 66.8,18.3 66.8,15.6 		"/>
		<polygon class="st1" points="36,0.2 36,71.8 66.8,56.4 66.8,15.6 		"/>
		<path id="o_00000071541973796143225230000001776666549240715923_" class="st2" d="M59.1,14.6L41.7,5.9L36,3.1l-5.7,2.9l-17.3,8.7
			l-5.1,2.6v5.7v26.3v5.7l5.1,2.6l17.3,8.7l5.7,2.9l5.7-2.9l17.4-8.7l5.1-2.6v-5.7V22.9v-5.7L59.1,14.6z M59.1,51.7L36,63.3
			l-23-11.6V20.3L36,8.7l23.1,11.6L59.1,51.7L59.1,51.7z"/>
	</g>
	<polygon class="st2" points="36,60.3 36,54.6 36,54.6 36,54.6 36,41.7 36,36 36,36 30.9,33.5 20.6,28.4 20.6,25.1 36,17.4 36,11.7 
		36,11.6 36,11.7 30.2,14.5 20.6,19.3 15.5,21.9 15.5,25.8 15.5,27.6 15.5,31.5 20.6,34.1 30.9,39.2 30.9,52 20.6,46.9 15.5,44.4 
		15.5,50.2 20.6,52.7 30.2,57.5 30.9,57.8 	"/>
	<polygon class="st2" points="43.7,50.8 43.7,21.2 56.5,27.6 56.5,21.9 49.9,18.6 43.7,15.5 38.6,13 38.6,18.7 38.6,53.4 38.6,59.1 
		46.9,54.9 56.5,50.1 56.5,44.4 	"/>
</g>
</svg>
