<?xml version="1.0" encoding="utf-8"?>
<!-- Generator: Adobe Illustrator 26.0.1, SVG Export Plug-In . SVG Version: 6.00 Build 0)  -->
<svg version="1.1" id="Camada_1" xmlns="http://www.w3.org/2000/svg" xmlns:xlink="http://www.w3.org/1999/xlink" x="0px" y="0px"
	 viewBox="0 0 128 128" style="enable-background:new 0 0 128 128;" xml:space="preserve">
<style type="text/css">
	.st0{fill:#010A1B;}
	.st1{display:none;opacity:0.1;fill:#333A48;fill-opacity:0.5;}
</style>
<g>
	<path class="st0" d="M23.1,36.1v55.8l40.8,20.5l41-20.5h0.1V36.2L64,15.6L23.1,36.1z M64,20.9v10.1L36.7,44.6v5.9l18.2,9.1L64,64
		v10.2V97v0.1v10.1l-9.1-4.5l-1.1-0.5l-17.1-8.5l-9.1-4.5V78.9l9.1,4.5l18.2,9.1V69.7l-18.2-9.1l-9.1-4.5v-7v-3.2v-7l9.1-4.6l17-8.4
		L64,20.9L64,20.9L64,20.9z M68.5,94.8V33.3V23.1l9.1,4.5l11.1,5.5l11.7,5.9v10.1L77.6,37.8v52.5l22.8-11.4V89l-17,8.5L68.5,105
		V94.8z"/>
	<path class="st0" d="M114.1,25.5L114.1,25.5L69.1,3L64,0.4L58.9,3L14,25.4l-4.6,2.3v5.1v62.5v5.1l4.6,2.3l44.9,22.5l5.1,2.5
		l5.1-2.5l44.9-22.5l0.1-0.1l4.5-2.3v-4.8V32.6v-4.8L114.1,25.5z M114,40.8v46.5v10.2l-9.1,4.5l-30.8,15.5l-10.2,5.1l-10.2-5.1
		L23.1,102L14,97.5V87.3V40.7V30.5l9.1-4.5l30.8-15.4L64,5.5l10.2,5.1l30.8,15.5l9.1,4.5V40.8z"/>
</g>
<polygon class="st1" points="64,0.4 64,127.6 118.6,100.3 118.6,27.8 "/>
</svg>
