<?xml version="1.0" encoding="utf-8"?>
<!-- Generator: Adobe Illustrator 26.0.1, SVG Export Plug-In . SVG Version: 6.00 Build 0)  -->
<svg version="1.1" id="Camada_1" xmlns="http://www.w3.org/2000/svg" xmlns:xlink="http://www.w3.org/1999/xlink" x="0px" y="0px"
	 viewBox="0 0 362.89 144.89" style="enable-background:new 0 0 362.89 144.89;" xml:space="preserve">
<style type="text/css">
	.st0{fill:#CECFD0;}
</style>
<g>
	<g>
		<polygon class="st0" points="44.17,91.29 44.17,101.01 44.17,133.23 44.17,143.94 44.17,144.11 108.19,144.11 108.19,133.23 
			55.05,133.23 55.05,101.01 108.19,101.01 108.19,90.13 44.17,90.13 		"/>
		<path class="st0" d="M114.1,91.29v9.72v32.22v10.7v0.17h53.14h10.88v-10.88v-32.22v-9.55v-1.33H114.1V91.29z M124.98,101.01h42.26
			v32.22h-42.26V101.01z"/>
		<polygon class="st0" points="185.9,100.38 239.05,100.38 239.05,132.6 185.9,132.6 185.9,143.48 239.05,143.48 249.93,143.48 
			249.93,132.6 249.93,100.38 249.93,90.83 249.93,89.5 185.9,89.5 		"/>
		<polygon class="st0" points="318.94,100.24 318.94,89.36 265.8,89.36 254.92,89.36 254.92,100.24 254.92,110.91 254.92,121.79 
			254.92,132.46 254.92,142 254.92,143.34 318.94,143.34 318.94,132.46 265.8,132.46 265.8,121.79 318.94,121.79 318.94,110.91 
			265.8,110.91 265.8,100.24 		"/>
	</g>
	<g>
		<polygon class="st0" points="11.66,12.28 64.83,12.28 64.83,1.4 11.66,1.4 11.66,1.36 0.78,1.36 0.78,33.63 0.84,33.63 
			0.84,33.68 53.98,33.68 53.98,44.3 0.84,44.3 0.84,55.18 64.86,55.18 64.86,55.08 64.86,44.3 64.86,33.68 64.86,23.63 64.86,22.8 
			11.66,22.8 		"/>
		<rect x="211.34" y="1.4" class="st0" width="10.88" height="53.76"/>
		<polygon class="st0" points="71.21,2.3 71.21,12.02 71.21,44.24 71.21,54.95 71.21,55.12 135.23,55.12 135.23,44.24 82.09,44.24 
			82.09,12.02 135.23,12.02 135.23,1.14 71.21,1.14 		"/>
		<polygon class="st0" points="335.99,1.22 325.12,1.22 298.77,1.22 298.77,12.1 325.12,12.1 325.12,55.12 335.99,55.12 
			335.99,12.1 362.34,12.1 362.34,1.22 		"/>
		<path class="st0" d="M280.98,1.53h-46.72v0h-6.2v53.76h10.88V33.71h45.33V33.7h7.59V1.53h-8.28H280.98z M280.98,22.83h-42.04
			V12.41h42.04V22.83z"/>
		<path class="st0" d="M204.98,33.66v-4.52v-6.36V3.83h-0.15V1.25h-64.02v1.53h-0.01v52.33h10.88V33.66h33.4l8.65,21.55l11.74,0.03
			l-8.66-21.58H204.98z M194.1,22.78h-42.42V12.13h42.42V22.78z"/>
	</g>
</g>
</svg>
