<?xml version="1.0" encoding="utf-8"?>
<!-- Generator: Adobe Illustrator 26.0.1, SVG Export Plug-In . SVG Version: 6.00 Build 0)  -->
<svg version="1.1" id="Camada_1" xmlns="http://www.w3.org/2000/svg" xmlns:xlink="http://www.w3.org/1999/xlink" x="0px" y="0px"
	 viewBox="0 0 595.28 408.38" style="enable-background:new 0 0 595.28 408.38;" xml:space="preserve">
<style type="text/css">
	.st0{fill:#FFFFFF;}
	.st1{clip-path:url(#SVGID_00000062901044636500122870000017375194277304628632_);}
	.st2{fill:#CECFD0;}
	.st3{fill:#E6007E;}
</style>
<g>
	<g>
		<path id="c" class="st0" d="M75.59,255.98v27.5v91.16v30.28v0.5h101.32v-30.78h-84.1v-91.16h84.1v-30.78H75.59V255.98z"/>
		<path id="o" class="st0" d="M189.87,255.98v27.5v91.16v30.29v0.49h84.1h17.22v-30.78v-91.16v-27v-3.78H189.87V255.98z
			 M207.09,283.49h66.88v91.16h-66.88V283.49z"/>
		<path id="d" class="st0" d="M304.12,283.49h84.1v91.18h-84.1v30.78h84.1h17.22v-30.78v-91.18v-27v-3.78H304.12V283.49z"/>
		<path id="e" class="st0" d="M519.68,283.49v-30.78h-84.1h-17.22v30.78v30.21v30.78v30.19v27v3.78h101.32v-30.78h-84.1v-30.19h84.1
			v-30.78h-84.1v-30.21H519.68z"/>
	</g>
	<g>
		<path id="_x31_" class="st0" d="M20.8,33.98h84.15V3.2H20.8V3.1H3.59v91.3h0.09v0.14h84.1v30.05H3.67v30.78h101.32v-0.29v-30.49
			V94.54V66.1v-2.34H20.8V33.98z"/>
		<path id="_x34_" class="st0" d="M364.05,3.1h-17.22v152.1h17.22V3.1z"/>
		<path id="_x32_" class="st0" d="M117.99,6.39v27.49v91.16v30.29v0.49h101.32v-30.78h-84.1V33.88h84.1V3.1H117.99V6.39z"/>
		<path id="_x36_" class="st0" d="M550.01,3.1H532.8h-41.69v30.78h41.69V155.6h17.22V33.88h41.68V3.1H550.01z"/>
		<path id="_x35_" class="st0" d="M460.97,3.1h-73.93h-9.81v152.1h17.22V94.16h71.73v-0.02h12.02V3.1h-13.1H460.97z M460.97,63.38
			h-66.53v-29.5h66.53V63.38z"/>
		<path id="_x33_" class="st0" d="M333.82,94.78v-12.8V64l0.01-60.9l-101.56,0v4.34h-0.02v148.06h17.22V94.78h52.86l13.7,60.97
			l18.57,0.09L320.88,94.8h12.94V94.78z M316.6,64h-67.14V33.86h67.14V64z"/>
	</g>
</g>
<g>
	<defs>
		<rect id="SVGID_1_" x="-1381.61" y="-18.05" width="595.28" height="420.19"/>
	</defs>
	<clipPath id="SVGID_00000155825480812577479500000005318226441792502455_">
		<use xlink:href="#SVGID_1_"  style="overflow:visible;"/>
	</clipPath>
	<g style="clip-path:url(#SVGID_00000155825480812577479500000005318226441792502455_);">
		<path class="st2" d="M-1308.27,247.54v28.36v93.99v31.22v0.52h104.46v-31.74h-86.71V275.9h86.71v-31.74h-104.46V247.54z"/>
		<path class="st2" d="M-1194.17,247.54v28.36v93.99v31.23v0.5h86.71h17.75v-31.74V275.9v-27.84v-3.9h-104.46V247.54z
			 M-1176.42,275.9h68.95v93.99h-68.95V275.9z"/>
		<path class="st2" d="M-1077.02,275.83h86.71v94.01h-86.71v31.74h86.71h17.75v-31.74v-94.01v-27.84v-3.9h-104.46V275.83z"/>
		<path class="st2" d="M-859.95,273.63v-31.74h-86.71h-17.75v31.74v31.15v31.74v31.13v27.84v3.9h104.46v-31.74h-86.71v-31.13h86.71
			v-31.74h-86.71v-31.15H-859.95z"/>
		<path class="st2" d="M-1361.31,17.05h86.76v-31.74h-86.76v-0.11h-17.75v94.13h0.09v0.14h86.71v30.98h-86.71v31.74h104.46v-0.3
			v-31.43V79.48V50.16v-2.41h-86.8V17.05z"/>
		<path class="st2" d="M-1017.77-14.69h-17.75v156.82h17.75V-14.69z"/>
		<path class="st2" d="M-1264.15-12.04V16.3v93.99v31.23v0.5h104.46v-31.74h-86.71V16.3h86.71v-31.74h-104.46V-12.04z"/>
		<path class="st2" d="M-832.13-15.21h-17.75h-42.98v31.74h42.98v125.49h17.75V16.53h42.97v-31.74H-832.13z"/>
		<path class="st2" d="M-921.9-14.31h-76.23h-10.11V142.5h17.75V79.57h73.95v-0.02h12.39v-93.87h-13.51H-921.9z M-921.9,47.83
			h-68.59V17.42h68.59V47.83z"/>
		<path class="st2" d="M-1045.89,79.43V66.23V47.69V-7.59h-0.24v-7.51h-104.46v4.47h-0.02v152.65h17.75V79.43h54.5l14.12,62.86
			l19.15,0.09l-14.14-62.93h13.34V79.43z M-1063.65,47.69h-69.22V16.62h69.22V47.69z"/>
	</g>
</g>
<rect x="267.08" y="-523.09" class="st3" width="13.12" height="40.98"/>
<rect x="-278.36" y="-286.15" class="st3" width="13.12" height="40.98"/>
<rect x="-308.96" y="-287.94" class="st3" width="13.12" height="40.98"/>
<rect x="-541.32" y="-283.26" class="st3" width="13.12" height="40.98"/>
</svg>
